<svg width="1440" height="786" viewBox="0 0 1440 786" fill="none" xmlns="http://www.w3.org/2000/svg">
<mask id="mask0_99_5072" style="mask-type:alpha" maskUnits="userSpaceOnUse" x="0" y="0" width="1440" height="786">
<rect y="0.615845" width="1440" height="785" fill="#F1F5F8"/>
</mask>
<g mask="url(#mask0_99_5072)">
<g opacity="0.8">
<rect x="643" y="-163.368" width="15" height="1396" transform="rotate(-15 643 -163.368)" fill="white"/>
<rect x="667.148" y="-169.838" width="15" height="1396" transform="rotate(-15 667.148 -169.838)" fill="white"/>
<rect x="691.297" y="-176.308" width="15" height="1396" transform="rotate(-15 691.297 -176.308)" fill="white"/>
<rect x="715.445" y="-182.779" width="15" height="1396" transform="rotate(-15 715.445 -182.779)" fill="white"/>
<rect x="739.592" y="-189.25" width="15" height="1396" transform="rotate(-15 739.592 -189.25)" fill="white"/>
<rect x="763.74" y="-195.72" width="15" height="1396" transform="rotate(-15 763.74 -195.72)" fill="white"/>
<rect x="787.889" y="-202.19" width="15" height="1396" transform="rotate(-15 787.889 -202.19)" fill="white"/>
<rect x="812.037" y="-208.661" width="15" height="1396" transform="rotate(-15 812.037 -208.661)" fill="white"/>
<rect x="836.186" y="-215.131" width="15" height="1396" transform="rotate(-15 836.186 -215.131)" fill="white"/>
<rect x="860.334" y="-221.602" width="15" height="1396" transform="rotate(-15 860.334 -221.602)" fill="white"/>
<rect x="884.482" y="-228.072" width="15" height="1396" transform="rotate(-15 884.482 -228.072)" fill="white"/>
<rect x="908.629" y="-234.543" width="15" height="1396" transform="rotate(-15 908.629 -234.543)" fill="white"/>
<rect x="932.777" y="-241.013" width="15" height="1396" transform="rotate(-15 932.777 -241.013)" fill="white"/>
<rect x="956.926" y="-247.484" width="15" height="1396" transform="rotate(-15 956.926 -247.484)" fill="white"/>
<rect x="981.074" y="-253.954" width="15" height="1396" transform="rotate(-15 981.074 -253.954)" fill="white"/>
<rect x="1005.22" y="-260.425" width="15" height="1396" transform="rotate(-15 1005.22 -260.425)" fill="white"/>
<rect x="1029.37" y="-266.895" width="15" height="1396" transform="rotate(-15 1029.37 -266.895)" fill="white"/>
<rect x="1053.52" y="-273.366" width="15" height="1396" transform="rotate(-15 1053.52 -273.366)" fill="white"/>
<rect x="1077.67" y="-279.836" width="15" height="1396" transform="rotate(-15 1077.67 -279.836)" fill="white"/>
<rect x="1101.81" y="-286.307" width="15" height="1396" transform="rotate(-15 1101.81 -286.307)" fill="white"/>
<rect x="1125.96" y="-292.777" width="15" height="1396" transform="rotate(-15 1125.96 -292.777)" fill="white"/>
<rect x="1150.11" y="-299.248" width="15" height="1396" transform="rotate(-15 1150.11 -299.248)" fill="white"/>
<rect x="1174.26" y="-305.718" width="15" height="1396" transform="rotate(-15 1174.26 -305.718)" fill="white"/>
<rect x="1198.41" y="-312.188" width="15" height="1396" transform="rotate(-15 1198.41 -312.188)" fill="white"/>
<rect x="1222.55" y="-318.659" width="15" height="1396" transform="rotate(-15 1222.55 -318.659)" fill="white"/>
<rect x="1246.7" y="-325.13" width="15" height="1396" transform="rotate(-15 1246.7 -325.13)" fill="white"/>
<rect x="1270.85" y="-331.6" width="15" height="1396" transform="rotate(-15 1270.85 -331.6)" fill="white"/>
<rect x="1295" y="-338.07" width="15" height="1396" transform="rotate(-15 1295 -338.07)" fill="white"/>
<rect x="1319.15" y="-344.541" width="15" height="1396" transform="rotate(-15 1319.15 -344.541)" fill="white"/>
<rect x="1343.3" y="-351.011" width="15" height="1396" transform="rotate(-15 1343.3 -351.011)" fill="white"/>
<rect x="1367.45" y="-357.482" width="15" height="1396" transform="rotate(-15 1367.45 -357.482)" fill="white"/>
<rect x="1391.59" y="-363.952" width="15" height="1396" transform="rotate(-15 1391.59 -363.952)" fill="white"/>
</g>
</g>
</svg>
