<svg width="20" height="21" viewBox="0 0 20 21" fill="none" xmlns="http://www.w3.org/2000/svg">
<path d="M19.8729 10.111C19.6942 9.86658 15.4371 4.12637 9.9999 4.12637C4.56274 4.12637 0.305391 9.86658 0.126914 10.1108C-0.0423048 10.3426 -0.0423048 10.6571 0.126914 10.889C0.305391 11.1334 4.56274 16.8736 9.9999 16.8736C15.4371 16.8736 19.6942 11.1334 19.8729 10.8892C20.0423 10.6574 20.0423 10.3426 19.8729 10.111ZM9.9999 15.555C5.99486 15.555 2.52606 11.7451 1.49922 10.4996C2.52473 9.25295 5.98626 5.44505 9.9999 5.44505C14.0048 5.44505 17.4733 9.25427 18.5006 10.5004C17.4751 11.747 14.0135 15.555 9.9999 15.555Z" fill="#686868"/>
<path d="M10 6.54395C7.81868 6.54395 6.04395 8.31868 6.04395 10.5C6.04395 12.6813 7.81868 14.4561 10 14.4561C12.1813 14.4561 13.9561 12.6813 13.9561 10.5C13.9561 8.31868 12.1813 6.54395 10 6.54395ZM10 13.1374C8.54571 13.1374 7.36266 11.9543 7.36266 10.5C7.36266 9.04575 8.54575 7.86266 10 7.86266C11.4543 7.86266 12.6374 9.04575 12.6374 10.5C12.6374 11.9543 11.4543 13.1374 10 13.1374Z" fill="#686868"/>
</svg>
