<svg width="230" height="13" viewBox="0 0 230 13" fill="none" xmlns="http://www.w3.org/2000/svg">
<path d="M0.124 6.24C0.124 5.54667 0.241333 4.86933 0.476 4.208C0.721333 3.536 1.07333 2.928 1.532 2.384C2.00133 1.82933 2.572 1.392 3.244 1.072C3.916 0.741333 4.67867 0.575999 5.532 0.575999C6.54533 0.575999 7.41467 0.810666 8.14 1.28C8.86533 1.73867 9.404 2.33067 9.756 3.056L8.62 3.792C8.396 3.312 8.108 2.93333 7.756 2.656C7.41467 2.368 7.04133 2.16533 6.636 2.048C6.24133 1.93067 5.852 1.872 5.468 1.872C4.83867 1.872 4.27867 2 3.788 2.256C3.308 2.512 2.90267 2.85333 2.572 3.28C2.24133 3.70667 1.99067 4.18667 1.82 4.72C1.66 5.24267 1.58 5.77067 1.58 6.304C1.58 6.89067 1.676 7.456 1.868 8C2.07067 8.544 2.348 9.024 2.7 9.44C3.052 9.856 3.468 10.1867 3.948 10.432C4.428 10.6773 4.95067 10.8 5.516 10.8C5.91067 10.8 6.316 10.7307 6.732 10.592C7.148 10.4533 7.53733 10.24 7.9 9.952C8.26267 9.65333 8.55067 9.26933 8.764 8.8L9.964 9.456C9.72933 10.0213 9.36667 10.5013 8.876 10.896C8.38533 11.2907 7.836 11.5893 7.228 11.792C6.63067 11.9947 6.03867 12.096 5.452 12.096C4.67333 12.096 3.95867 11.9307 3.308 11.6C2.65733 11.2587 2.092 10.8107 1.612 10.256C1.14267 9.69067 0.774667 9.06133 0.508 8.368C0.252 7.664 0.124 6.95467 0.124 6.24ZM15.2383 12.16C14.6089 12.16 14.0329 12.048 13.5103 11.824C12.9983 11.5893 12.5503 11.2747 12.1663 10.88C11.7929 10.4747 11.4996 10.0107 11.2863 9.488C11.0836 8.96533 10.9823 8.41067 10.9823 7.824C10.9823 7.03467 11.1636 6.31467 11.5263 5.664C11.8889 5.01333 12.3903 4.49067 13.0303 4.096C13.6809 3.70133 14.4223 3.504 15.2543 3.504C16.0969 3.504 16.8276 3.70667 17.4463 4.112C18.0756 4.50667 18.5609 5.02933 18.9023 5.68C19.2543 6.32 19.4303 7.01333 19.4303 7.76C19.4303 7.86667 19.4249 7.97333 19.4143 8.08C19.4143 8.176 19.4089 8.25067 19.3983 8.304H12.4703C12.5129 8.848 12.6623 9.33333 12.9183 9.76C13.1849 10.176 13.5263 10.5067 13.9423 10.752C14.3583 10.9867 14.8063 11.104 15.2863 11.104C15.7983 11.104 16.2783 10.976 16.7263 10.72C17.1849 10.464 17.4996 10.128 17.6703 9.712L18.8863 10.048C18.7049 10.4533 18.4329 10.816 18.0703 11.136C17.7183 11.456 17.2969 11.7067 16.8063 11.888C16.3263 12.0693 15.8036 12.16 15.2383 12.16ZM12.4223 7.328H18.1183C18.0756 6.784 17.9209 6.304 17.6543 5.888C17.3876 5.472 17.0463 5.14667 16.6303 4.912C16.2143 4.67733 15.7556 4.56 15.2543 4.56C14.7636 4.56 14.3103 4.67733 13.8943 4.912C13.4783 5.14667 13.1369 5.472 12.8703 5.888C12.6143 6.304 12.4649 6.784 12.4223 7.328ZM23.0274 12V4.896H20.1474V3.648H27.3154V4.896H24.4354V12H23.0274ZM28.7138 12V3.648H30.1218V6.496H32.2018C33.1831 6.496 33.9244 6.74667 34.4258 7.248C34.9378 7.73867 35.1938 8.384 35.1938 9.184C35.1938 9.71733 35.0818 10.1973 34.8578 10.624C34.6444 11.0507 34.3244 11.3867 33.8978 11.632C33.4711 11.8773 32.9378 12 32.2977 12H28.7138ZM30.1218 10.896H32.1058C32.5004 10.896 32.8151 10.8213 33.0498 10.672C33.2951 10.512 33.4764 10.304 33.5938 10.048C33.7111 9.792 33.7698 9.51467 33.7698 9.216C33.7698 8.928 33.7164 8.66133 33.6098 8.416C33.5031 8.17067 33.3271 7.97333 33.0818 7.824C32.8364 7.67467 32.5004 7.6 32.0738 7.6H30.1218V10.896ZM40.7606 12V3.648H42.1686V7.088H43.0966L45.7206 3.648H47.3206L44.2006 7.696L47.6886 12H46.0566L43.0966 8.384H42.1686V12H40.7606ZM48.3375 12.064V10.8C48.6148 10.8 48.8602 10.7307 49.0735 10.592C49.2975 10.4427 49.4948 10.1973 49.6655 9.856C49.8362 9.504 49.9695 9.024 50.0655 8.416C50.1722 7.79733 50.2415 7.01333 50.2735 6.064L50.3695 3.648H56.0495V12H54.6415V4.896H51.6175L51.5855 6.192C51.5428 7.33333 51.4468 8.28267 51.2975 9.04C51.1482 9.79733 50.9402 10.3947 50.6735 10.832C50.4068 11.2693 50.0762 11.584 49.6815 11.776C49.2975 11.968 48.8495 12.064 48.3375 12.064ZM58.3075 12V3.664H59.7155V10.112L64.3875 3.648H65.6675V12H64.2595V5.68L59.6515 12H58.3075ZM67.9013 12V3.648H69.3093V7.104H73.6613V3.648H75.0693V12H73.6613V8.352H69.3093V12H67.9013ZM77.3231 12V3.664H78.7311V10.112L83.4031 3.648H84.6831V12H83.2751V5.68L78.6671 12H77.3231ZM86.9169 12V3.648H88.3249V7.088H89.2529L91.8769 3.648H93.4769L90.3569 7.696L93.8449 12H92.2129L89.2529 8.384H88.3249V12H86.9169ZM107.208 1.92H103.288V12H101.848V1.92H97.9283V0.639999H107.208V1.92ZM110.487 12.16C109.858 12.16 109.287 12.048 108.775 11.824C108.263 11.5893 107.82 11.2747 107.447 10.88C107.074 10.4747 106.786 10.0107 106.583 9.488C106.38 8.96533 106.279 8.416 106.279 7.84C106.279 7.25333 106.38 6.69867 106.583 6.176C106.786 5.65333 107.074 5.19467 107.447 4.8C107.82 4.39467 108.263 4.08 108.775 3.856C109.298 3.62133 109.874 3.504 110.503 3.504C111.122 3.504 111.687 3.62133 112.199 3.856C112.711 4.08 113.154 4.39467 113.527 4.8C113.911 5.19467 114.204 5.65333 114.407 6.176C114.61 6.69867 114.711 7.25333 114.711 7.84C114.711 8.416 114.61 8.96533 114.407 9.488C114.204 10.0107 113.916 10.4747 113.543 10.88C113.17 11.2747 112.722 11.5893 112.199 11.824C111.687 12.048 111.116 12.16 110.487 12.16ZM107.719 7.856C107.719 8.432 107.842 8.95467 108.087 9.424C108.343 9.89333 108.679 10.2667 109.095 10.544C109.511 10.8107 109.975 10.944 110.487 10.944C110.999 10.944 111.463 10.8053 111.879 10.528C112.306 10.2507 112.642 9.87733 112.887 9.408C113.143 8.928 113.271 8.4 113.271 7.824C113.271 7.248 113.143 6.72533 112.887 6.256C112.642 5.78667 112.306 5.41333 111.879 5.136C111.463 4.85867 110.999 4.72 110.487 4.72C109.975 4.72 109.511 4.864 109.095 5.152C108.679 5.42933 108.343 5.80267 108.087 6.272C107.842 6.74133 107.719 7.26933 107.719 7.856ZM116.401 12V3.648H117.857L120.961 9.12L124.081 3.648H125.505V12H124.161V5.68L121.409 10.512H120.513L117.745 5.68V12H116.401ZM131.473 12.16C130.843 12.16 130.267 12.048 129.745 11.824C129.233 11.5893 128.785 11.2693 128.401 10.864C128.027 10.4587 127.734 9.99467 127.521 9.472C127.318 8.94933 127.217 8.39467 127.217 7.808C127.217 7.01867 127.393 6.29867 127.745 5.648C128.097 4.99733 128.593 4.48 129.233 4.096C129.873 3.70133 130.614 3.504 131.457 3.504C132.278 3.504 132.993 3.69067 133.601 4.064C134.219 4.42667 134.678 4.91733 134.977 5.536L133.601 5.968C133.387 5.57333 133.089 5.26933 132.705 5.056C132.321 4.832 131.894 4.72 131.425 4.72C130.913 4.72 130.443 4.85333 130.017 5.12C129.601 5.38667 129.27 5.75467 129.025 6.224C128.779 6.68267 128.657 7.21067 128.657 7.808C128.657 8.39467 128.779 8.928 129.025 9.408C129.281 9.87733 129.617 10.2507 130.033 10.528C130.459 10.8053 130.929 10.944 131.441 10.944C131.771 10.944 132.086 10.8853 132.385 10.768C132.694 10.6507 132.961 10.496 133.185 10.304C133.419 10.1013 133.579 9.88267 133.665 9.648L135.041 10.064C134.87 10.4693 134.609 10.832 134.257 11.152C133.915 11.4613 133.505 11.7067 133.025 11.888C132.555 12.0693 132.038 12.16 131.473 12.16ZM136.62 12V3.648H138.028V7.088H138.956L141.58 3.648H143.18L140.06 7.696L143.548 12H141.916L138.956 8.384H138.028V12H136.62ZM148.143 12.16C147.514 12.16 146.943 12.048 146.431 11.824C145.919 11.5893 145.477 11.2747 145.103 10.88C144.73 10.4747 144.442 10.0107 144.239 9.488C144.037 8.96533 143.935 8.416 143.935 7.84C143.935 7.25333 144.037 6.69867 144.239 6.176C144.442 5.65333 144.73 5.19467 145.103 4.8C145.477 4.39467 145.919 4.08 146.431 3.856C146.954 3.62133 147.53 3.504 148.159 3.504C148.778 3.504 149.343 3.62133 149.855 3.856C150.367 4.08 150.81 4.39467 151.183 4.8C151.567 5.19467 151.861 5.65333 152.063 6.176C152.266 6.69867 152.367 7.25333 152.367 7.84C152.367 8.416 152.266 8.96533 152.063 9.488C151.861 10.0107 151.573 10.4747 151.199 10.88C150.826 11.2747 150.378 11.5893 149.855 11.824C149.343 12.048 148.773 12.16 148.143 12.16ZM145.375 7.856C145.375 8.432 145.498 8.95467 145.743 9.424C145.999 9.89333 146.335 10.2667 146.751 10.544C147.167 10.8107 147.631 10.944 148.143 10.944C148.655 10.944 149.119 10.8053 149.535 10.528C149.962 10.2507 150.298 9.87733 150.543 9.408C150.799 8.928 150.927 8.4 150.927 7.824C150.927 7.248 150.799 6.72533 150.543 6.256C150.298 5.78667 149.962 5.41333 149.535 5.136C149.119 4.85867 148.655 4.72 148.143 4.72C147.631 4.72 147.167 4.864 146.751 5.152C146.335 5.42933 145.999 5.80267 145.743 6.272C145.498 6.74133 145.375 7.26933 145.375 7.856ZM154.058 12V3.664H155.466V10.112L160.138 3.648H161.418V12H160.01V5.68L155.402 12H154.058ZM157.754 2.704C156.986 2.704 156.404 2.52267 156.01 2.16C155.615 1.78667 155.418 1.328 155.418 0.783999H156.41C156.41 1.08267 156.511 1.33333 156.714 1.536C156.927 1.728 157.274 1.824 157.754 1.824C158.223 1.824 158.554 1.73333 158.746 1.552C158.938 1.36 159.055 1.104 159.098 0.783999H160.09C160.09 1.328 159.892 1.78667 159.498 2.16C159.103 2.52267 158.522 2.704 157.754 2.704ZM171.362 12.16C170.733 12.16 170.162 12.048 169.65 11.824C169.138 11.5893 168.695 11.2747 168.322 10.88C167.949 10.4747 167.661 10.0107 167.458 9.488C167.255 8.96533 167.154 8.416 167.154 7.84C167.154 7.25333 167.255 6.69867 167.458 6.176C167.661 5.65333 167.949 5.19467 168.322 4.8C168.695 4.39467 169.138 4.08 169.65 3.856C170.173 3.62133 170.749 3.504 171.378 3.504C171.997 3.504 172.562 3.62133 173.074 3.856C173.586 4.08 174.029 4.39467 174.402 4.8C174.786 5.19467 175.079 5.65333 175.282 6.176C175.485 6.69867 175.586 7.25333 175.586 7.84C175.586 8.416 175.485 8.96533 175.282 9.488C175.079 10.0107 174.791 10.4747 174.418 10.88C174.045 11.2747 173.597 11.5893 173.074 11.824C172.562 12.048 171.991 12.16 171.362 12.16ZM168.594 7.856C168.594 8.432 168.717 8.95467 168.962 9.424C169.218 9.89333 169.554 10.2667 169.97 10.544C170.386 10.8107 170.85 10.944 171.362 10.944C171.874 10.944 172.338 10.8053 172.754 10.528C173.181 10.2507 173.517 9.87733 173.762 9.408C174.018 8.928 174.146 8.4 174.146 7.824C174.146 7.248 174.018 6.72533 173.762 6.256C173.517 5.78667 173.181 5.41333 172.754 5.136C172.338 4.85867 171.874 4.72 171.362 4.72C170.85 4.72 170.386 4.864 169.97 5.152C169.554 5.42933 169.218 5.80267 168.962 6.272C168.717 6.74133 168.594 7.26933 168.594 7.856ZM181.228 12.16C179.852 12.16 178.812 11.744 178.108 10.912C177.404 10.08 177.052 8.90667 177.052 7.392C177.052 6.35733 177.138 5.488 177.308 4.784C177.479 4.06933 177.735 3.48267 178.076 3.024C178.418 2.55467 178.839 2.176 179.34 1.888C179.842 1.58933 180.418 1.344 181.068 1.152L184.604 0.079999L184.684 1.296L181.244 2.336C180.658 2.528 180.167 2.77333 179.772 3.072C179.378 3.37067 179.068 3.75467 178.844 4.224C178.62 4.69333 178.471 5.296 178.396 6.032C178.674 5.46667 179.09 5.02933 179.644 4.72C180.199 4.4 180.844 4.24 181.58 4.24C182.37 4.24 183.047 4.40533 183.612 4.736C184.188 5.056 184.626 5.50933 184.924 6.096C185.234 6.672 185.388 7.33867 185.388 8.096C185.388 8.90667 185.228 9.616 184.908 10.224C184.588 10.832 184.119 11.3067 183.5 11.648C182.882 11.9893 182.124 12.16 181.228 12.16ZM181.228 10.944C182.092 10.944 182.759 10.6933 183.228 10.192C183.708 9.68 183.948 9.00267 183.948 8.16C183.948 7.33867 183.714 6.672 183.244 6.16C182.775 5.648 182.103 5.392 181.228 5.392C180.716 5.392 180.252 5.49867 179.836 5.712C179.431 5.92533 179.106 6.24 178.86 6.656C178.626 7.06133 178.508 7.56267 178.508 8.16C178.508 8.69333 178.61 9.17333 178.812 9.6C179.026 10.016 179.335 10.3467 179.74 10.592C180.146 10.8267 180.642 10.944 181.228 10.944ZM186.369 12.064V10.8C186.646 10.8 186.891 10.7307 187.105 10.592C187.329 10.4427 187.526 10.1973 187.697 9.856C187.867 9.504 188.001 9.024 188.097 8.416C188.203 7.79733 188.273 7.01333 188.305 6.064L188.401 3.648H194.081V12H192.673V4.896H189.649L189.617 6.192C189.574 7.33333 189.478 8.28267 189.329 9.04C189.179 9.79733 188.971 10.3947 188.705 10.832C188.438 11.2693 188.107 11.584 187.713 11.776C187.329 11.968 186.881 12.064 186.369 12.064ZM195.699 9.584C195.699 9.05067 195.848 8.592 196.147 8.208C196.456 7.81333 196.877 7.50933 197.411 7.296C197.944 7.08267 198.563 6.976 199.267 6.976C199.64 6.976 200.035 7.008 200.451 7.072C200.867 7.12533 201.235 7.21067 201.555 7.328V6.72C201.555 6.08 201.363 5.57867 200.979 5.216C200.595 4.84267 200.051 4.656 199.347 4.656C198.888 4.656 198.445 4.74133 198.019 4.912C197.603 5.072 197.16 5.30667 196.691 5.616L196.179 4.624C196.723 4.25067 197.267 3.97333 197.811 3.792C198.355 3.6 198.92 3.504 199.507 3.504C200.573 3.504 201.416 3.80267 202.035 4.4C202.653 4.98667 202.963 5.808 202.963 6.864V10.4C202.963 10.5707 202.995 10.6987 203.059 10.784C203.133 10.8587 203.251 10.9013 203.411 10.912V12C203.272 12.0213 203.149 12.0373 203.043 12.048C202.947 12.0587 202.867 12.064 202.803 12.064C202.472 12.064 202.221 11.9733 202.051 11.792C201.891 11.6107 201.8 11.4187 201.779 11.216L201.747 10.688C201.384 11.1573 200.909 11.52 200.323 11.776C199.736 12.032 199.155 12.16 198.579 12.16C198.024 12.16 197.528 12.048 197.091 11.824C196.653 11.5893 196.312 11.28 196.067 10.896C195.821 10.5013 195.699 10.064 195.699 9.584ZM201.139 10.176C201.267 10.0267 201.368 9.87733 201.443 9.728C201.517 9.568 201.555 9.43467 201.555 9.328V8.288C201.224 8.16 200.877 8.064 200.515 8C200.152 7.92533 199.795 7.888 199.443 7.888C198.728 7.888 198.147 8.032 197.699 8.32C197.261 8.59733 197.043 8.98133 197.043 9.472C197.043 9.73867 197.112 10 197.251 10.256C197.4 10.5013 197.613 10.704 197.891 10.864C198.179 11.024 198.531 11.104 198.947 11.104C199.384 11.104 199.8 11.0187 200.195 10.848C200.589 10.6667 200.904 10.4427 201.139 10.176ZM208.91 12.16C208.281 12.16 207.705 12.048 207.182 11.824C206.67 11.5893 206.222 11.2693 205.838 10.864C205.465 10.4587 205.171 9.99467 204.958 9.472C204.755 8.94933 204.654 8.39467 204.654 7.808C204.654 7.01867 204.83 6.29867 205.182 5.648C205.534 4.99733 206.03 4.48 206.67 4.096C207.31 3.70133 208.051 3.504 208.894 3.504C209.715 3.504 210.43 3.69067 211.038 4.064C211.657 4.42667 212.115 4.91733 212.414 5.536L211.038 5.968C210.825 5.57333 210.526 5.26933 210.142 5.056C209.758 4.832 209.331 4.72 208.862 4.72C208.35 4.72 207.881 4.85333 207.454 5.12C207.038 5.38667 206.707 5.75467 206.462 6.224C206.217 6.68267 206.094 7.21067 206.094 7.808C206.094 8.39467 206.217 8.928 206.462 9.408C206.718 9.87733 207.054 10.2507 207.47 10.528C207.897 10.8053 208.366 10.944 208.878 10.944C209.209 10.944 209.523 10.8853 209.822 10.768C210.131 10.6507 210.398 10.496 210.622 10.304C210.857 10.1013 211.017 9.88267 211.102 9.648L212.478 10.064C212.307 10.4693 212.046 10.832 211.694 11.152C211.353 11.4613 210.942 11.7067 210.462 11.888C209.993 12.0693 209.475 12.16 208.91 12.16ZM216.106 12V4.896H213.226V3.648H220.394V4.896H217.514V12H216.106ZM221.792 12V3.664H223.2V10.112L227.872 3.648H229.152V12H227.744V5.68L223.136 12H221.792Z" fill="#686868"/>
</svg>
